<mxfile host="app.diagrams.net" modified="2023-12-03T13:05:48.748Z" agent="Mozilla/5.0 (X11; Linux x86_64) AppleWebKit/537.36 (KHTML, like Gecko) Chrome/119.0.0.0 Safari/537.36" etag="YXPBC22G-gbwuOWvqmhH" version="22.1.5" type="device">
  <diagram name="Page-1" id="dAjCDETQ3B6Sjateg3Hk">
    <mxGraphModel dx="1430" dy="821" grid="1" gridSize="10" guides="1" tooltips="1" connect="1" arrows="1" fold="1" page="1" pageScale="1" pageWidth="850" pageHeight="1100" math="0" shadow="0">
      <root>
        <mxCell id="0" />
        <mxCell id="1" parent="0" />
        <mxCell id="iuHLa0GhHNvZuV-EeRmP-5" value="" style="rounded=0;whiteSpace=wrap;html=1;dashed=1;strokeWidth=3;" vertex="1" parent="1">
          <mxGeometry x="280" y="210" width="730" height="780" as="geometry" />
        </mxCell>
        <mxCell id="gYdATXDG7kGbHXDYzB5d-5" style="edgeStyle=orthogonalEdgeStyle;rounded=0;orthogonalLoop=1;jettySize=auto;html=1;exitX=1.007;exitY=0.606;exitDx=0;exitDy=0;exitPerimeter=0;" parent="1" source="gYdATXDG7kGbHXDYzB5d-1" target="gYdATXDG7kGbHXDYzB5d-4" edge="1">
          <mxGeometry relative="1" as="geometry">
            <mxPoint x="20" y="360" as="sourcePoint" />
          </mxGeometry>
        </mxCell>
        <mxCell id="gYdATXDG7kGbHXDYzB5d-6" value="Upload &lt;br&gt;Geo-Tagged &lt;br&gt;Image" style="edgeLabel;html=1;align=center;verticalAlign=middle;resizable=0;points=[];" parent="gYdATXDG7kGbHXDYzB5d-5" vertex="1" connectable="0">
          <mxGeometry x="-0.2527" y="-5" relative="1" as="geometry">
            <mxPoint x="11" y="-5" as="offset" />
          </mxGeometry>
        </mxCell>
        <mxCell id="gYdATXDG7kGbHXDYzB5d-1" value="" style="shape=actor;whiteSpace=wrap;html=1;" parent="1" vertex="1">
          <mxGeometry x="220" y="330" width="40" height="50" as="geometry" />
        </mxCell>
        <mxCell id="gYdATXDG7kGbHXDYzB5d-10" style="edgeStyle=orthogonalEdgeStyle;rounded=0;orthogonalLoop=1;jettySize=auto;html=1;" parent="1" target="gYdATXDG7kGbHXDYzB5d-14" edge="1">
          <mxGeometry relative="1" as="geometry">
            <mxPoint x="410" y="360" as="sourcePoint" />
            <mxPoint x="490" y="360" as="targetPoint" />
          </mxGeometry>
        </mxCell>
        <mxCell id="gYu_5bHP2RDGwZ4mZIuj-1" value="trigger" style="edgeLabel;html=1;align=center;verticalAlign=middle;resizable=0;points=[];" parent="gYdATXDG7kGbHXDYzB5d-10" vertex="1" connectable="0">
          <mxGeometry x="0.0872" y="-2" relative="1" as="geometry">
            <mxPoint x="-2" y="-2" as="offset" />
          </mxGeometry>
        </mxCell>
        <mxCell id="gYdATXDG7kGbHXDYzB5d-4" value="Amazon S3 (Ingest Bucket)" style="sketch=0;outlineConnect=0;fontColor=#232F3E;gradientColor=none;strokeColor=#ffffff;fillColor=#232F3E;dashed=0;verticalLabelPosition=middle;verticalAlign=bottom;align=center;html=1;whiteSpace=wrap;fontSize=10;fontStyle=1;spacing=3;shape=mxgraph.aws4.productIcon;prIcon=mxgraph.aws4.s3;" parent="1" vertex="1">
          <mxGeometry x="379.97" y="310" width="80" height="110" as="geometry" />
        </mxCell>
        <mxCell id="gYu_5bHP2RDGwZ4mZIuj-10" style="edgeStyle=orthogonalEdgeStyle;rounded=0;orthogonalLoop=1;jettySize=auto;html=1;" parent="1" target="gYu_5bHP2RDGwZ4mZIuj-9" edge="1">
          <mxGeometry relative="1" as="geometry">
            <mxPoint x="580" y="380" as="sourcePoint" />
            <mxPoint x="410" y="480" as="targetPoint" />
            <Array as="points">
              <mxPoint x="500" y="380" />
              <mxPoint x="500" y="500" />
            </Array>
          </mxGeometry>
        </mxCell>
        <mxCell id="gYu_5bHP2RDGwZ4mZIuj-11" value="move image &lt;br&gt;to &lt;br&gt;storage" style="edgeLabel;html=1;align=center;verticalAlign=middle;resizable=0;points=[];" parent="gYu_5bHP2RDGwZ4mZIuj-10" vertex="1" connectable="0">
          <mxGeometry x="-0.0543" y="2" relative="1" as="geometry">
            <mxPoint x="-2" y="3" as="offset" />
          </mxGeometry>
        </mxCell>
        <mxCell id="gYdATXDG7kGbHXDYzB5d-14" value="AWS Lambda" style="sketch=0;outlineConnect=0;fontColor=#232F3E;gradientColor=none;strokeColor=#ffffff;fillColor=#232F3E;dashed=0;verticalLabelPosition=middle;verticalAlign=bottom;align=center;html=1;whiteSpace=wrap;fontSize=10;fontStyle=1;spacing=3;shape=mxgraph.aws4.productIcon;prIcon=mxgraph.aws4.lambda;" parent="1" vertex="1">
          <mxGeometry x="580" y="310" width="80" height="100" as="geometry" />
        </mxCell>
        <mxCell id="gYdATXDG7kGbHXDYzB5d-18" value="&lt;div align=&quot;center&quot;&gt;parse new image for EXIF geodata, and push to DynamoDB, move processed image to storage&lt;/div&gt;" style="text;html=1;strokeColor=none;fillColor=none;align=center;verticalAlign=middle;whiteSpace=wrap;rounded=0;" parent="1" vertex="1">
          <mxGeometry x="560" y="230" width="120" height="40" as="geometry" />
        </mxCell>
        <mxCell id="iuHLa0GhHNvZuV-EeRmP-13" style="edgeStyle=orthogonalEdgeStyle;rounded=0;orthogonalLoop=1;jettySize=auto;html=1;" edge="1" parent="1" source="gYdATXDG7kGbHXDYzB5d-29" target="gYu_5bHP2RDGwZ4mZIuj-15">
          <mxGeometry relative="1" as="geometry" />
        </mxCell>
        <mxCell id="iuHLa0GhHNvZuV-EeRmP-14" value="Generate" style="edgeLabel;html=1;align=center;verticalAlign=middle;resizable=0;points=[];" vertex="1" connectable="0" parent="iuHLa0GhHNvZuV-EeRmP-13">
          <mxGeometry x="0.4428" y="3" relative="1" as="geometry">
            <mxPoint x="27" y="-3" as="offset" />
          </mxGeometry>
        </mxCell>
        <mxCell id="gYdATXDG7kGbHXDYzB5d-29" value="&lt;b&gt;Amazon Location&lt;br&gt;Service&lt;br&gt;&lt;/b&gt;" style="sketch=0;points=[[0,0,0],[0.25,0,0],[0.5,0,0],[0.75,0,0],[1,0,0],[0,1,0],[0.25,1,0],[0.5,1,0],[0.75,1,0],[1,1,0],[0,0.25,0],[0,0.5,0],[0,0.75,0],[1,0.25,0],[1,0.5,0],[1,0.75,0]];outlineConnect=0;fontColor=#232F3E;fillColor=#232F3E;strokeColor=#ffffff;dashed=0;verticalLabelPosition=bottom;verticalAlign=top;align=center;html=1;fontSize=12;fontStyle=0;aspect=fixed;shape=mxgraph.aws4.resourceIcon;resIcon=mxgraph.aws4.location_service;" parent="1" vertex="1">
          <mxGeometry x="784" y="612" width="78" height="78" as="geometry" />
        </mxCell>
        <mxCell id="gYdATXDG7kGbHXDYzB5d-31" value="" style="shape=curlyBracket;whiteSpace=wrap;html=1;rounded=1;flipH=1;labelPosition=right;verticalLabelPosition=middle;align=left;verticalAlign=middle;rotation=-90;fillColor=#F58534;strokeColor=#F58534;fontColor=#000000;" parent="1" vertex="1">
          <mxGeometry x="609" y="810" width="20" height="140" as="geometry" />
        </mxCell>
        <mxCell id="iuHLa0GhHNvZuV-EeRmP-40" style="edgeStyle=orthogonalEdgeStyle;rounded=0;orthogonalLoop=1;jettySize=auto;html=1;" edge="1" parent="1" source="gYdATXDG7kGbHXDYzB5d-41">
          <mxGeometry relative="1" as="geometry">
            <mxPoint x="1040" y="780" as="targetPoint" />
            <Array as="points">
              <mxPoint x="977" y="819" />
              <mxPoint x="977" y="820" />
              <mxPoint x="1040" y="820" />
            </Array>
          </mxGeometry>
        </mxCell>
        <mxCell id="iuHLa0GhHNvZuV-EeRmP-42" value="Send notification" style="edgeLabel;html=1;align=center;verticalAlign=middle;resizable=0;points=[];" vertex="1" connectable="0" parent="iuHLa0GhHNvZuV-EeRmP-40">
          <mxGeometry x="-0.6061" y="1" relative="1" as="geometry">
            <mxPoint x="19" y="1" as="offset" />
          </mxGeometry>
        </mxCell>
        <mxCell id="gYdATXDG7kGbHXDYzB5d-41" value="Amazon SNS" style="sketch=0;outlineConnect=0;fontColor=#232F3E;gradientColor=none;strokeColor=#ffffff;fillColor=#232F3E;dashed=0;verticalLabelPosition=middle;verticalAlign=bottom;align=center;html=1;whiteSpace=wrap;fontSize=10;fontStyle=1;spacing=3;shape=mxgraph.aws4.productIcon;prIcon=mxgraph.aws4.sns;" parent="1" vertex="1">
          <mxGeometry x="784" y="769" width="80" height="100" as="geometry" />
        </mxCell>
        <mxCell id="gYu_5bHP2RDGwZ4mZIuj-2" value="" style="edgeStyle=orthogonalEdgeStyle;rounded=0;orthogonalLoop=1;jettySize=auto;html=1;" parent="1" source="gYdATXDG7kGbHXDYzB5d-14" target="gYdATXDG7kGbHXDYzB5d-29" edge="1">
          <mxGeometry relative="1" as="geometry">
            <mxPoint x="778" y="365" as="targetPoint" />
            <mxPoint x="660" y="360" as="sourcePoint" />
          </mxGeometry>
        </mxCell>
        <mxCell id="iuHLa0GhHNvZuV-EeRmP-43" value="Create geofence" style="edgeLabel;html=1;align=center;verticalAlign=middle;resizable=0;points=[];" vertex="1" connectable="0" parent="gYu_5bHP2RDGwZ4mZIuj-2">
          <mxGeometry x="0.2061" y="2" relative="1" as="geometry">
            <mxPoint as="offset" />
          </mxGeometry>
        </mxCell>
        <mxCell id="gYu_5bHP2RDGwZ4mZIuj-9" value="Amazon S3 (Storage Bucket)" style="sketch=0;outlineConnect=0;fontColor=#232F3E;gradientColor=none;strokeColor=#ffffff;fillColor=#232F3E;dashed=0;verticalLabelPosition=middle;verticalAlign=bottom;align=center;html=1;whiteSpace=wrap;fontSize=10;fontStyle=1;spacing=3;shape=mxgraph.aws4.productIcon;prIcon=mxgraph.aws4.s3;" parent="1" vertex="1">
          <mxGeometry x="379.97" y="460" width="80" height="125" as="geometry" />
        </mxCell>
        <mxCell id="iuHLa0GhHNvZuV-EeRmP-32" style="edgeStyle=orthogonalEdgeStyle;rounded=0;orthogonalLoop=1;jettySize=auto;html=1;entryX=0;entryY=0.51;entryDx=0;entryDy=0;entryPerimeter=0;" edge="1" parent="1" target="gYu_5bHP2RDGwZ4mZIuj-22">
          <mxGeometry relative="1" as="geometry">
            <mxPoint x="423" y="710" as="sourcePoint" />
            <mxPoint x="424.0000000000002" y="769" as="targetPoint" />
            <Array as="points">
              <mxPoint x="423" y="820" />
            </Array>
          </mxGeometry>
        </mxCell>
        <mxCell id="gYu_5bHP2RDGwZ4mZIuj-14" value="&lt;b&gt;EventBridge&lt;/b&gt;" style="sketch=0;points=[[0,0,0],[0.25,0,0],[0.5,0,0],[0.75,0,0],[1,0,0],[0,1,0],[0.25,1,0],[0.5,1,0],[0.75,1,0],[1,1,0],[0,0.25,0],[0,0.5,0],[0,0.75,0],[1,0.25,0],[1,0.5,0],[1,0.75,0]];outlineConnect=0;fontColor=#232F3E;fillColor=#232F3E;strokeColor=#ffffff;dashed=0;verticalLabelPosition=bottom;verticalAlign=top;align=center;html=1;fontSize=12;fontStyle=0;aspect=fixed;shape=mxgraph.aws4.resourceIcon;resIcon=mxgraph.aws4.eventbridge;" parent="1" vertex="1">
          <mxGeometry x="383.97" y="612" width="78" height="78" as="geometry" />
        </mxCell>
        <mxCell id="iuHLa0GhHNvZuV-EeRmP-17" style="edgeStyle=orthogonalEdgeStyle;rounded=0;orthogonalLoop=1;jettySize=auto;html=1;" edge="1" parent="1" source="gYu_5bHP2RDGwZ4mZIuj-15" target="gYu_5bHP2RDGwZ4mZIuj-14">
          <mxGeometry relative="1" as="geometry" />
        </mxCell>
        <mxCell id="gYu_5bHP2RDGwZ4mZIuj-15" value="EventBridge event" style="sketch=0;outlineConnect=0;fontColor=#232F3E;gradientColor=none;fillColor=#232F3E;strokeColor=none;dashed=0;verticalLabelPosition=bottom;verticalAlign=top;align=center;html=1;fontSize=12;fontStyle=0;aspect=fixed;pointerEvents=1;shape=mxgraph.aws4.event;" parent="1" vertex="1">
          <mxGeometry x="580" y="612" width="78" height="78" as="geometry" />
        </mxCell>
        <mxCell id="gYu_5bHP2RDGwZ4mZIuj-17" value="&lt;div align=&quot;center&quot;&gt;When Tracker updates device location, create new Event&lt;/div&gt;" style="text;html=1;strokeColor=none;fillColor=none;align=center;verticalAlign=middle;whiteSpace=wrap;rounded=0;" parent="1" vertex="1">
          <mxGeometry x="470" y="580" width="120" height="40" as="geometry" />
        </mxCell>
        <mxCell id="iuHLa0GhHNvZuV-EeRmP-19" style="edgeStyle=orthogonalEdgeStyle;rounded=0;orthogonalLoop=1;jettySize=auto;html=1;" edge="1" parent="1" source="gYu_5bHP2RDGwZ4mZIuj-22" target="gYdATXDG7kGbHXDYzB5d-41">
          <mxGeometry relative="1" as="geometry" />
        </mxCell>
        <mxCell id="iuHLa0GhHNvZuV-EeRmP-20" value="Request&lt;br&gt;&amp;nbsp;Email/SMS&lt;br&gt;&amp;nbsp;to&lt;br&gt;&amp;nbsp;User" style="edgeLabel;html=1;align=center;verticalAlign=middle;resizable=0;points=[];" vertex="1" connectable="0" parent="iuHLa0GhHNvZuV-EeRmP-19">
          <mxGeometry x="0.2957" y="2" relative="1" as="geometry">
            <mxPoint x="-10" y="2" as="offset" />
          </mxGeometry>
        </mxCell>
        <mxCell id="gYu_5bHP2RDGwZ4mZIuj-22" value="AWS Lambda" style="sketch=0;outlineConnect=0;fontColor=#232F3E;gradientColor=none;strokeColor=#ffffff;fillColor=#232F3E;dashed=0;verticalLabelPosition=middle;verticalAlign=bottom;align=center;html=1;whiteSpace=wrap;fontSize=10;fontStyle=1;spacing=3;shape=mxgraph.aws4.productIcon;prIcon=mxgraph.aws4.lambda;" parent="1" vertex="1">
          <mxGeometry x="580" y="769" width="80" height="100" as="geometry" />
        </mxCell>
        <mxCell id="gYu_5bHP2RDGwZ4mZIuj-24" value="&lt;div align=&quot;center&quot;&gt;Parse event message for information device info and send notification request&lt;/div&gt;" style="text;html=1;strokeColor=none;fillColor=none;align=center;verticalAlign=middle;whiteSpace=wrap;rounded=0;" parent="1" vertex="1">
          <mxGeometry x="559" y="869" width="120" height="110" as="geometry" />
        </mxCell>
        <mxCell id="gYu_5bHP2RDGwZ4mZIuj-38" value="&lt;div align=&quot;center&quot;&gt;Notify the user that they are in the proximity of a tourist attraction, or another interesting feature&lt;/div&gt;" style="text;html=1;strokeColor=none;fillColor=none;align=center;verticalAlign=middle;whiteSpace=wrap;rounded=0;" parent="1" vertex="1">
          <mxGeometry x="763" y="904" width="120" height="40" as="geometry" />
        </mxCell>
        <mxCell id="iuHLa0GhHNvZuV-EeRmP-9" style="edgeStyle=orthogonalEdgeStyle;rounded=0;orthogonalLoop=1;jettySize=auto;html=1;" edge="1" parent="1" source="gYu_5bHP2RDGwZ4mZIuj-44" target="gYdATXDG7kGbHXDYzB5d-14">
          <mxGeometry relative="1" as="geometry" />
        </mxCell>
        <mxCell id="iuHLa0GhHNvZuV-EeRmP-18" style="edgeStyle=orthogonalEdgeStyle;rounded=0;orthogonalLoop=1;jettySize=auto;html=1;jumpStyle=gap;" edge="1" parent="1">
          <mxGeometry relative="1" as="geometry">
            <mxPoint x="660" y="490" as="sourcePoint" />
            <mxPoint x="620" y="769" as="targetPoint" />
            <Array as="points">
              <mxPoint x="690" y="490" />
              <mxPoint x="690" y="750" />
              <mxPoint x="620" y="750" />
            </Array>
          </mxGeometry>
        </mxCell>
        <mxCell id="gYu_5bHP2RDGwZ4mZIuj-44" value="&lt;b&gt;Amazon Elastic&lt;br&gt;Container Registry&lt;/b&gt;" style="sketch=0;points=[[0,0,0],[0.25,0,0],[0.5,0,0],[0.75,0,0],[1,0,0],[0,1,0],[0.25,1,0],[0.5,1,0],[0.75,1,0],[1,1,0],[0,0.25,0],[0,0.5,0],[0,0.75,0],[1,0.25,0],[1,0.5,0],[1,0.75,0]];outlineConnect=0;fontColor=#232F3E;fillColor=#232F3E;strokeColor=#ffffff;dashed=0;verticalLabelPosition=bottom;verticalAlign=top;align=center;html=1;fontSize=12;fontStyle=0;aspect=fixed;shape=mxgraph.aws4.resourceIcon;resIcon=mxgraph.aws4.ecr;" parent="1" vertex="1">
          <mxGeometry x="580" y="450" width="80" height="80" as="geometry" />
        </mxCell>
        <mxCell id="iuHLa0GhHNvZuV-EeRmP-3" value="" style="outlineConnect=0;dashed=0;verticalLabelPosition=bottom;verticalAlign=top;align=center;html=1;shape=mxgraph.aws3.cloud_2;fillColor=#F58534;gradientColor=none;" vertex="1" parent="1">
          <mxGeometry x="280" y="212.5" width="75" height="75" as="geometry" />
        </mxCell>
        <mxCell id="iuHLa0GhHNvZuV-EeRmP-22" value="" style="shape=curlyBracket;whiteSpace=wrap;html=1;rounded=1;flipH=1;labelPosition=right;verticalLabelPosition=middle;align=left;verticalAlign=middle;rotation=-90;fillColor=#F58534;strokeColor=#F58534;fontColor=#000000;" vertex="1" parent="1">
          <mxGeometry x="813" y="810" width="20" height="140" as="geometry" />
        </mxCell>
        <mxCell id="iuHLa0GhHNvZuV-EeRmP-23" style="edgeStyle=orthogonalEdgeStyle;rounded=0;orthogonalLoop=1;jettySize=auto;html=1;exitX=0.5;exitY=1;exitDx=0;exitDy=0;" edge="1" parent="1" source="gYu_5bHP2RDGwZ4mZIuj-38" target="gYu_5bHP2RDGwZ4mZIuj-38">
          <mxGeometry relative="1" as="geometry" />
        </mxCell>
        <mxCell id="iuHLa0GhHNvZuV-EeRmP-25" value="" style="shape=curlyBracket;whiteSpace=wrap;html=1;rounded=1;flipH=1;labelPosition=right;verticalLabelPosition=middle;align=left;verticalAlign=middle;rotation=90;fillColor=#F58534;strokeColor=#F58534;size=0.5;" vertex="1" parent="1">
          <mxGeometry x="520" y="585" width="20" height="100" as="geometry" />
        </mxCell>
        <mxCell id="iuHLa0GhHNvZuV-EeRmP-28" value="" style="shape=curlyBracket;whiteSpace=wrap;html=1;rounded=1;flipH=1;labelPosition=right;verticalLabelPosition=middle;align=left;verticalAlign=middle;rotation=90;fillColor=#F58534;strokeColor=#F58534;fontColor=#000000;" vertex="1" parent="1">
          <mxGeometry x="610" y="220" width="20" height="140" as="geometry" />
        </mxCell>
        <mxCell id="iuHLa0GhHNvZuV-EeRmP-36" value="User Device" style="group;verticalAlign=middle;horizontal=0;labelPosition=right;verticalLabelPosition=middle;align=left;" vertex="1" connectable="0" parent="1">
          <mxGeometry x="1020" y="699" width="75" height="70" as="geometry" />
        </mxCell>
        <mxCell id="gYu_5bHP2RDGwZ4mZIuj-28" value="&lt;div style=&quot;text-align: justify;&quot;&gt;&lt;br&gt;&lt;/div&gt;" style="sketch=0;pointerEvents=1;shadow=0;dashed=0;html=1;strokeColor=none;labelPosition=center;verticalLabelPosition=bottom;verticalAlign=bottom;align=right;fillColor=#505050;shape=mxgraph.mscae.intune.device_group" parent="iuHLa0GhHNvZuV-EeRmP-36" vertex="1">
          <mxGeometry x="5" width="70" height="60" as="geometry" />
        </mxCell>
        <mxCell id="gYu_5bHP2RDGwZ4mZIuj-29" value="" style="shape=actor;whiteSpace=wrap;html=1;" parent="iuHLa0GhHNvZuV-EeRmP-36" vertex="1">
          <mxGeometry y="20" width="40" height="50" as="geometry" />
        </mxCell>
        <mxCell id="iuHLa0GhHNvZuV-EeRmP-38" style="edgeStyle=orthogonalEdgeStyle;rounded=0;orthogonalLoop=1;jettySize=auto;html=1;exitX=0.426;exitY=-0.011;exitDx=0;exitDy=0;exitPerimeter=0;entryX=1;entryY=0.5;entryDx=0;entryDy=0;entryPerimeter=0;" edge="1" parent="1" source="gYu_5bHP2RDGwZ4mZIuj-28" target="gYdATXDG7kGbHXDYzB5d-29">
          <mxGeometry relative="1" as="geometry" />
        </mxCell>
        <mxCell id="iuHLa0GhHNvZuV-EeRmP-39" value="Send location &lt;br&gt;update for device" style="edgeLabel;html=1;align=center;verticalAlign=middle;resizable=0;points=[];" vertex="1" connectable="0" parent="iuHLa0GhHNvZuV-EeRmP-38">
          <mxGeometry x="-0.2401" y="-1" relative="1" as="geometry">
            <mxPoint x="-81" y="1" as="offset" />
          </mxGeometry>
        </mxCell>
      </root>
    </mxGraphModel>
  </diagram>
</mxfile>
